<svg width="69" height="62" viewBox="0 0 69 62" fill="none" xmlns="http://www.w3.org/2000/svg">
<g id="fa6-solid:cubes" clip-path="url(#clip0_422_1071)">
<path id="Vector" d="M34.8341 5.82058L44.2233 9.37747L34.4988 13.114L24.7743 9.37747L34.1635 5.82058C34.379 5.73675 34.6186 5.73675 34.8461 5.82058H34.8341ZM16.2952 11.0781V24.5152C16.1395 24.5631 15.9838 24.611 15.8282 24.6709L4.33116 29.0301C1.73236 30.0122 0.0078125 32.5152 0.0078125 35.2936V49.569C0.0078125 52.2277 1.57667 54.6349 4.01978 55.7128L15.5168 60.7666C17.2413 61.5211 19.1934 61.5211 20.918 60.7666L34.4988 54.7906L48.0916 60.7666C49.8161 61.5211 51.7682 61.5211 53.4928 60.7666L64.9898 55.7128C67.4209 54.6469 69.0018 52.2277 69.0018 49.569V35.2936C69.0018 32.5032 67.2772 30.0122 64.6784 29.0182L53.1814 24.6589C53.0257 24.599 52.87 24.5511 52.7143 24.5032V11.0781C52.7143 8.28765 50.9898 5.79663 48.391 4.80262L36.894 0.443344C35.3611 -0.131505 33.6725 -0.131505 32.1395 0.443344L20.6425 4.80262C18.0198 5.79663 16.2952 8.29962 16.2952 11.0781ZM46.9539 25.2218L37.0856 28.9583V18.2757L46.9539 14.4912V25.2218ZM18.5467 30.0481L27.9359 33.605L18.2114 37.3295L8.48685 33.605L17.8761 30.0481C18.0916 29.9643 18.3311 29.9643 18.5587 30.0481H18.5467ZM20.7982 54.5271V42.4912L30.6665 38.7068V50.1918L20.7982 54.5271ZM50.4509 30.0481C50.6664 29.9643 50.906 29.9643 51.1335 30.0481L60.5227 33.605L50.7862 37.3295L41.0617 33.605L50.4509 30.0481ZM62.6664 50.4433L53.373 54.5271V42.4912L63.2413 38.7068V49.569C63.2413 49.9523 63.0137 50.2876 62.6664 50.4433Z" fill="#FF9F1C"/>
</g>
<defs>
<clipPath id="clip0_422_1071">
<rect width="69" height="61.3173" fill="white"/>
</clipPath>
</defs>
</svg>
