<svg width="76" height="70" viewBox="0 0 76 70" fill="none" xmlns="http://www.w3.org/2000/svg">
<g id="fontisto:persons" clip-path="url(#clip0_422_1086)">
<path id="Vector" d="M65.0876 50.4445C62.1412 46.4888 57.9345 43.6555 53.1613 42.412L53.0125 42.3799L49.5738 48.1841C49.5715 48.9569 49.2634 49.6975 48.717 50.244C48.1705 50.7904 47.4299 51.0985 46.6571 51.1008C45.0529 51.1008 43.7404 49.7883 42.2092 45.9266V45.8333C42.2092 44.8663 41.8251 43.939 41.1413 43.2553C40.4576 42.5715 39.5303 42.1874 38.5633 42.1874C37.5964 42.1874 36.6691 42.5715 35.9853 43.2553C35.3016 43.939 34.9175 44.8663 34.9175 45.8333V45.9295V45.9237C33.2842 49.7883 31.96 51.0979 30.3587 51.0979C29.5859 51.0956 28.8454 50.7875 28.2989 50.241C27.7524 49.6946 27.4444 48.954 27.4421 48.1812L24.1112 42.3653C19.3052 43.5877 15.06 46.4131 12.077 50.3745L12.0362 50.4299C10.8538 52.3638 10.1953 54.5723 10.1258 56.8379V56.8583C10.1403 57.2958 10.1258 57.8062 10.1258 58.3166V64.15C10.1258 65.6971 10.7403 67.1808 11.8343 68.2748C12.9283 69.3687 14.412 69.9833 15.9591 69.9833H61.1676C62.7147 69.9833 64.1984 69.3687 65.2924 68.2748C66.3863 67.1808 67.0009 65.6971 67.0009 64.15V58.3166C67.0009 57.8091 66.9863 57.2958 67.0009 56.8583C66.9274 54.5669 66.2579 52.3341 65.0584 50.3804L65.0905 50.4387L65.0876 50.4445ZM23.2479 15.4299C23.2479 23.9465 28.5562 36.4591 38.5604 36.4591C48.3896 36.4591 53.873 23.9465 53.873 15.4299V15.2403C53.873 13.2294 53.4769 11.2382 52.7074 9.38042C51.9378 7.52262 50.8099 5.83457 49.388 4.41267C47.9661 2.99077 46.2781 1.86286 44.4203 1.09333C42.5625 0.323805 40.5713 -0.0722656 38.5604 -0.0722656C36.5495 -0.0722656 34.5584 0.323805 32.7006 1.09333C30.8428 1.86286 29.1547 2.99077 27.7328 4.41267C26.3109 5.83457 25.183 7.52262 24.4135 9.38042C23.6439 11.2382 23.2479 13.2294 23.2479 15.2403V15.4386V15.4299ZM56.0138 20.4465C56.0138 25.9941 59.473 34.1491 65.9888 34.1491C72.3909 34.1491 75.9639 25.997 75.9639 20.4465V20.2949C75.9639 17.6486 74.9126 15.1106 73.0414 13.2394C71.1702 11.3682 68.6322 10.3169 65.9859 10.3169C63.3396 10.3169 60.8017 11.3682 58.9304 13.2394C57.0592 15.1106 56.008 17.6486 56.008 20.2949V20.4553V20.4465H56.0138ZM0.0136458 25.1132C0.0136458 30.6607 3.47282 38.8158 9.98867 38.8158C16.3908 38.8158 19.9637 30.6636 19.9637 25.1132V24.9615C19.9637 22.3152 18.9125 19.7773 17.0412 17.9061C15.17 16.0349 12.6321 14.9836 9.98576 14.9836C7.33944 14.9836 4.80151 16.0349 2.93028 17.9061C1.05906 19.7773 0.0078125 22.3152 0.0078125 24.9615L0.0078125 25.122V25.1132H0.0136458Z" fill="#FF9F1C"/>
</g>
<defs>
<clipPath id="clip0_422_1086">
<rect width="75.8473" height="70.0002" fill="white"/>
</clipPath>
</defs>
</svg>
