<svg width="33" height="31" viewBox="0 0 33 31" fill="none" xmlns="http://www.w3.org/2000/svg">
<g id="material-symbols:call">
<path id="Vector" d="M27.4313 27.125C24.5667 27.125 21.7365 26.5386 18.9406 25.3657C16.1448 24.1929 13.601 22.5297 11.3094 20.376C9.01771 18.2224 7.24762 15.8328 5.99912 13.2073C4.75062 10.5818 4.12592 7.92308 4.125 5.23125C4.125 4.84375 4.2625 4.52083 4.5375 4.2625C4.8125 4.00417 5.15625 3.875 5.56875 3.875H11.1375C11.4583 3.875 11.7448 3.97747 11.9969 4.18242C12.249 4.38736 12.3979 4.62933 12.4438 4.90833L13.3375 9.42917C13.3833 9.77361 13.3719 10.0642 13.3031 10.301C13.2344 10.5378 13.1083 10.7424 12.925 10.9146L9.59062 14.0792C10.049 14.8757 10.593 15.6451 11.2227 16.3874C11.8525 17.1297 12.546 17.8457 13.3031 18.5354C14.0135 19.2028 14.7583 19.8219 15.5375 20.3928C16.3167 20.9637 17.1417 21.4856 18.0125 21.9583L21.2437 18.9229C21.45 18.7292 21.7195 18.5841 22.0522 18.4876C22.385 18.3912 22.7113 18.3641 23.0312 18.4062L27.775 19.3104C28.0958 19.3965 28.3594 19.5528 28.5656 19.7793C28.7719 20.0058 28.875 20.2585 28.875 20.5375V25.7688C28.875 26.1562 28.7375 26.4792 28.4625 26.7375C28.1875 26.9958 27.8438 27.125 27.4313 27.125Z" fill="#1E1E1E"/>
</g>
</svg>
