<svg width="30" height="35" viewBox="0 0 30 35" fill="none" xmlns="http://www.w3.org/2000/svg">
<g id="ri:home-office-line">
<path id="Vector" d="M15.8412 2.35039L26 13.1246H22.2837L15 5.39977L7.5 13.355V27.7079H13.75V30.6246H6.25C5.91848 30.6246 5.60054 30.4709 5.36612 30.1974C5.1317 29.9239 5 29.553 5 29.1662V16.0412H1.25L14.1587 2.35039C14.3889 2.10609 14.6889 1.9707 15 1.9707C15.3111 1.9707 15.6111 2.10609 15.8412 2.35039ZM17.5 16.0412H28.75V26.2496H17.5V16.0412ZM20 18.9579V23.3329H26.25V18.9579H20ZM30 30.6246H16.25V27.7079H30V30.6246Z" fill="#1E1E1E"/>
</g>
</svg>
