<svg width="57" height="57" viewBox="0 0 57 57" fill="none" xmlns="http://www.w3.org/2000/svg">
<g id="rivet-icons:money">
<path id="Vector" d="M24.9375 7.125H17.8125C16.1751 7.125 14.5537 7.44751 13.0409 8.07413C11.5281 8.70074 10.1536 9.61918 8.99576 10.777C7.83793 11.9348 6.91949 13.3094 6.29288 14.8222C5.66626 16.3349 5.34375 17.9563 5.34375 19.5938C5.34375 21.2312 5.66626 22.8526 6.29288 24.3653C6.91949 25.8781 7.83793 27.2527 8.99576 28.4105C10.1536 29.5683 11.5281 30.4868 13.0409 31.1134C14.5537 31.74 16.1751 32.0625 17.8125 32.0625H24.9375V42.75H8.90625V49.875H24.9375V57H32.0625V49.875H39.1875C42.4944 49.875 45.6659 48.5613 48.0042 46.223C50.3426 43.8846 51.6562 40.7132 51.6562 37.4062C51.6562 34.0993 50.3426 30.9279 48.0042 28.5895C45.6659 26.2512 42.4944 24.9375 39.1875 24.9375H32.0625V14.25H48.0938V7.125H32.0625V0H24.9375V7.125ZM32.0625 32.0625H39.1875C40.6048 32.0625 41.964 32.6255 42.9661 33.6276C43.9683 34.6298 44.5312 35.989 44.5312 37.4062C44.5312 38.8235 43.9683 40.1827 42.9661 41.1849C41.964 42.187 40.6048 42.75 39.1875 42.75H32.0625V32.0625ZM24.9375 24.9375H17.8125C17.1107 24.9375 16.4159 24.7993 15.7675 24.5307C15.1192 24.2622 14.5301 23.8686 14.0339 23.3724C13.5377 22.8761 13.1441 22.287 12.8755 21.6387C12.607 20.9904 12.4688 20.2955 12.4688 19.5938C12.4688 18.892 12.607 18.1971 12.8755 17.5488C13.1441 16.9005 13.5377 16.3114 14.0339 15.8151C14.5301 15.3189 15.1192 14.9253 15.7675 14.6568C16.4159 14.3882 17.1107 14.25 17.8125 14.25H24.9375V24.9375Z" fill="#FF9F1C"/>
</g>
</svg>
